<svg xmlns="http://www.w3.org/2000/svg" xmlns:xlink="http://www.w3.org/1999/xlink" width="50" zoomAndPan="magnify" viewBox="0 0 37.5 37.499999" height="50" preserveAspectRatio="xMidYMid meet" version="1.0"><defs><clipPath id="f109cb33ee"><path d="M 0.75 1.011719 L 36 1.011719 L 36 36.261719 L 0.75 36.261719 Z M 0.75 1.011719 " clip-rule="nonzero"/></clipPath></defs><g clip-path="url(#f109cb33ee)"><path fill="#99b83c" d="M 36 18.636719 C 36 19.214844 35.972656 19.789062 35.914062 20.363281 C 35.859375 20.941406 35.773438 21.511719 35.660156 22.074219 C 35.546875 22.640625 35.410156 23.203125 35.242188 23.753906 C 35.074219 24.304688 34.878906 24.847656 34.660156 25.382812 C 34.4375 25.914062 34.191406 26.4375 33.917969 26.945312 C 33.648438 27.453125 33.351562 27.949219 33.03125 28.429688 C 32.707031 28.910156 32.367188 29.371094 32 29.820312 C 31.632812 30.265625 31.246094 30.691406 30.835938 31.101562 C 30.429688 31.507812 30.003906 31.894531 29.554688 32.261719 C 29.109375 32.628906 28.648438 32.972656 28.167969 33.292969 C 27.6875 33.613281 27.191406 33.910156 26.683594 34.179688 C 26.175781 34.453125 25.652344 34.699219 25.121094 34.921875 C 24.585938 35.140625 24.042969 35.335938 23.492188 35.503906 C 22.9375 35.671875 22.378906 35.8125 21.8125 35.925781 C 21.246094 36.035156 20.675781 36.121094 20.101562 36.175781 C 19.527344 36.234375 18.953125 36.261719 18.375 36.261719 C 17.796875 36.261719 17.222656 36.234375 16.648438 36.175781 C 16.074219 36.121094 15.503906 36.035156 14.9375 35.925781 C 14.371094 35.8125 13.8125 35.671875 13.257812 35.503906 C 12.707031 35.335938 12.164062 35.140625 11.628906 34.921875 C 11.097656 34.699219 10.574219 34.453125 10.066406 34.179688 C 9.558594 33.910156 9.0625 33.613281 8.582031 33.292969 C 8.101562 32.972656 7.640625 32.628906 7.195312 32.261719 C 6.746094 31.894531 6.320312 31.507812 5.914062 31.101562 C 5.503906 30.691406 5.117188 30.265625 4.75 29.820312 C 4.382812 29.371094 4.042969 28.910156 3.71875 28.429688 C 3.398438 27.949219 3.101562 27.453125 2.832031 26.945312 C 2.558594 26.4375 2.3125 25.914062 2.089844 25.382812 C 1.871094 24.847656 1.675781 24.304688 1.507812 23.753906 C 1.339844 23.203125 1.203125 22.640625 1.089844 22.074219 C 0.976562 21.511719 0.890625 20.941406 0.835938 20.363281 C 0.777344 19.789062 0.75 19.214844 0.75 18.636719 C 0.75 18.058594 0.777344 17.484375 0.835938 16.910156 C 0.890625 16.335938 0.976562 15.765625 1.089844 15.199219 C 1.203125 14.632812 1.339844 14.074219 1.507812 13.519531 C 1.675781 12.96875 1.871094 12.425781 2.089844 11.894531 C 2.3125 11.359375 2.558594 10.839844 2.832031 10.328125 C 3.101562 9.820312 3.398438 9.324219 3.71875 8.84375 C 4.042969 8.367188 4.382812 7.902344 4.75 7.457031 C 5.117188 7.011719 5.503906 6.582031 5.914062 6.175781 C 6.320312 5.765625 6.746094 5.378906 7.195312 5.011719 C 7.640625 4.648438 8.101562 4.304688 8.582031 3.984375 C 9.0625 3.664062 9.558594 3.367188 10.066406 3.09375 C 10.574219 2.820312 11.097656 2.574219 11.628906 2.355469 C 12.164062 2.132812 12.707031 1.9375 13.257812 1.769531 C 13.8125 1.605469 14.371094 1.464844 14.9375 1.351562 C 15.503906 1.238281 16.074219 1.152344 16.648438 1.097656 C 17.222656 1.039062 17.796875 1.011719 18.375 1.011719 C 18.953125 1.011719 19.527344 1.039062 20.101562 1.097656 C 20.675781 1.152344 21.246094 1.238281 21.8125 1.351562 C 22.378906 1.464844 22.9375 1.605469 23.492188 1.769531 C 24.042969 1.9375 24.585938 2.132812 25.121094 2.355469 C 25.652344 2.574219 26.175781 2.820312 26.683594 3.09375 C 27.191406 3.367188 27.6875 3.664062 28.167969 3.984375 C 28.648438 4.304688 29.109375 4.648438 29.554688 5.011719 C 30.003906 5.378906 30.429688 5.765625 30.835938 6.175781 C 31.246094 6.582031 31.632812 7.011719 32 7.457031 C 32.367188 7.902344 32.707031 8.367188 33.03125 8.84375 C 33.351562 9.324219 33.648438 9.820312 33.917969 10.328125 C 34.191406 10.839844 34.4375 11.359375 34.660156 11.894531 C 34.878906 12.425781 35.074219 12.96875 35.242188 13.519531 C 35.410156 14.074219 35.546875 14.632812 35.660156 15.199219 C 35.773438 15.765625 35.859375 16.335938 35.914062 16.910156 C 35.972656 17.484375 36 18.058594 36 18.636719 Z M 36 18.636719 " fill-opacity="1" fill-rule="nonzero"/></g><path fill="#ffffff" d="M 14.003906 30.792969 L 4.390625 21.179688 L 8.222656 17.351562 L 14.003906 23.132812 L 28.527344 8.609375 L 32.355469 12.4375 Z M 14.003906 30.792969 " fill-opacity="1" fill-rule="nonzero"/></svg>